<svg width="14" height="14" viewBox="0 0 14 14" fill="none" xmlns="http://www.w3.org/2000/svg">
<path d="M3.29912 12.3599H4.60927C4.72559 12.3599 4.81131 12.3905 4.89702 12.4762L5.82759 13.4008C6.62348 14.2028 7.37039 14.1967 8.16628 13.4008L9.09686 12.4762C9.18869 12.3905 9.26828 12.3599 9.39073 12.3599H10.7009C11.8213 12.3599 12.3539 11.8273 12.3539 10.7007V9.39048C12.3539 9.27415 12.3906 9.18843 12.4763 9.10272L13.4008 8.17209C14.2028 7.37616 14.1967 6.62921 13.4008 5.83327L12.4763 4.90265C12.3845 4.81081 12.3539 4.73121 12.3539 4.61489V3.30466C12.3539 2.17811 11.8274 1.64545 10.7009 1.64545H9.39073C9.26828 1.64545 9.18257 1.61483 9.09686 1.52912L8.16628 0.598489C7.37039 -0.203566 6.62348 -0.197444 5.82759 0.604611L4.89702 1.52912C4.81131 1.60871 4.72559 1.64545 4.60927 1.64545H3.29912C2.1665 1.64545 1.63999 2.16586 1.63999 3.30466V4.61489C1.63999 4.73121 1.60938 4.81693 1.52367 4.90265L0.599215 5.83327C-0.202796 6.62921 -0.196674 7.37616 0.599215 8.17209L1.52367 9.10272C1.60938 9.18843 1.63999 9.27415 1.63999 9.39048V10.7007C1.63999 11.8273 2.17263 12.3599 3.29912 12.3599ZM6.31737 10.0211C6.08473 10.0211 5.90106 9.92314 5.72352 9.70273L4.22357 7.87821C4.11337 7.73739 4.05827 7.59657 4.05827 7.43738C4.05827 7.12513 4.30928 6.87411 4.62152 6.87411C4.81131 6.87411 4.95824 6.94146 5.11742 7.1435L6.29901 8.63741L8.82748 4.59039C8.96217 4.37611 9.13359 4.2659 9.32338 4.2659C9.62949 4.2659 9.91112 4.48019 9.91112 4.80468C9.91112 4.9455 9.83765 5.09857 9.75194 5.23326L6.88062 9.69661C6.74593 9.9109 6.55002 10.0211 6.31737 10.0211Z" fill="#0D6EFF"/>
</svg>
