<svg width="44" height="44" viewBox="0 0 44 44" fill="none" xmlns="http://www.w3.org/2000/svg">
<path d="M5.5 22.145C5.5 31.249 13.0249 38.79 22.145 38.79C31.249 38.79 38.79 31.249 38.79 22.1289C38.79 13.0249 31.249 5.5 22.145 5.5C13.0249 5.5 5.5 13.041 5.5 22.145ZM13.6855 22.1611C13.6855 21.291 14.2817 20.6626 15.1357 20.6626L23.0151 20.6626L26.4634 20.8237L24.5942 19.3091L22.6445 17.4399C22.3706 17.1982 22.2095 16.8276 22.2095 16.4248C22.2095 15.6353 22.7734 15.0552 23.563 15.0552C23.9658 15.0552 24.2881 15.168 24.5781 15.4419L30.1694 20.9849C30.5562 21.3555 30.7334 21.71 30.7334 22.1611C30.7334 22.6284 30.5562 22.9829 30.1694 23.3535L24.5781 28.8804C24.2881 29.1543 23.9658 29.2832 23.563 29.2832C22.7734 29.2832 22.2095 28.687 22.2095 27.8975C22.2095 27.4946 22.3545 27.1401 22.6445 26.8823L24.5781 25.0293L26.4795 23.4985L23.0151 23.6597L15.1357 23.6597C14.2817 23.6597 13.6855 23.0312 13.6855 22.1611Z" fill="#FFED00"/>
</svg>
