<svg width="36" height="36" viewBox="0 0 36 36" fill="none" xmlns="http://www.w3.org/2000/svg">
<path d="M12.6337 17.7747C15.8597 17.7747 18.6355 14.8252 18.6355 10.9846C18.6355 7.19018 15.8447 4.37891 12.6337 4.37891C9.42277 4.37891 6.63195 7.25163 6.63195 11.0153C6.63195 14.8252 9.42277 17.7747 12.6337 17.7747ZM3.21094 32H22.0565C24.4122 32 25.2524 31.3087 25.2524 29.9568C25.2524 25.9934 20.406 20.5245 12.6337 20.5245C4.84643 20.5245 0 25.9934 0 29.9568C0 31.3087 0.840247 32 3.21094 32Z" fill="#FF2D55" fill-opacity="0.2"/>
<path d="M28 20C23.5884 20 20 23.5884 20 28C20 32.4116 23.5884 36 28 36C32.4116 36 36 32.4116 36 28C36 23.5884 32.4116 20 28 20ZM31.424 30.3942C31.7076 30.6778 31.7076 31.1389 31.424 31.4225C31.2815 31.5651 31.0953 31.6364 30.9091 31.6364C30.7229 31.6364 30.5367 31.5651 30.3942 31.424L28 29.0284L25.6058 31.4225C25.4633 31.5651 25.2771 31.6364 25.0909 31.6364C24.9047 31.6364 24.7185 31.5651 24.576 31.424C24.2924 31.1404 24.2924 30.6793 24.576 30.3956L26.9702 28.0015L24.576 25.6073C24.2924 25.3236 24.2924 24.8625 24.576 24.5789C24.8596 24.2953 25.3207 24.2953 25.6044 24.5789L27.9985 26.9731L30.3927 24.5789C30.6764 24.2953 31.1375 24.2953 31.4211 24.5789C31.7047 24.8625 31.7047 25.3236 31.4211 25.6073L29.0284 28L31.424 30.3942Z" fill="#FF2D55"/>
</svg>
