<svg width="15" height="15" viewBox="0 0 15 15" fill="none" xmlns="http://www.w3.org/2000/svg">
<path d="M5.74774 15C6.19639 15 6.54345 14.81 6.78894 14.4387L14.746 1.7962C14.9238 1.51123 15 1.26943 15 1.03627C15 0.423143 14.5767 0 13.9673 0C13.5525 0 13.2985 0.15544 13.0446 0.561313L5.70542 12.4352L1.93849 7.50432C1.68454 7.16753 1.42212 7.02936 1.04966 7.02936C0.440181 7.02936 0 7.46978 0 8.07427C0 8.34197 0.0931151 8.60104 0.313205 8.86874L4.69808 14.4473C4.99436 14.8273 5.30756 15 5.74774 15Z" fill="black"/>
</svg>
