<svg width="16" height="20" viewBox="0 0 16 20" fill="none" xmlns="http://www.w3.org/2000/svg">
<path d="M0 17.504C0 19.1653 0.805868 20 2.42543 20H9.77995C11.3995 20 12.2054 19.1574 12.2054 17.504V16.0334H13.5746C15.1863 16.0334 16 15.1908 16 13.5374V7.08267C16 6.10493 15.8044 5.4849 15.2176 4.87281L11.2665 0.794913C10.711 0.214626 10.0538 0 9.21663 0H6.22005C4.60831 0 3.79462 0.842607 3.79462 2.49603V3.96661H2.42543C0.813692 3.96661 0 4.80127 0 6.46264V17.504ZM11.4621 9.18124L7.1511 4.72178C6.55648 4.10175 6.06357 3.96661 5.18729 3.96661H5.05428V2.51987C5.05428 1.73291 5.46895 1.27981 6.28264 1.27981H9.74083V5.35771C9.74083 6.27981 10.179 6.71701 11.0787 6.71701H14.7403V13.5135C14.7403 14.3084 14.3178 14.7536 13.5042 14.7536H12.2054V11.2957C12.2054 10.2782 12.088 9.83307 11.4621 9.18124ZM10.8753 5.16693V1.90779L14.4117 5.56439H11.2587C10.9848 5.56439 10.8753 5.44515 10.8753 5.16693ZM1.25966 17.4801V6.47854C1.25966 5.69952 1.67433 5.24642 2.48802 5.24642H5.05428V9.85692C5.05428 10.8585 5.55501 11.3593 6.52518 11.3593H10.9457V17.4801C10.9457 18.275 10.5232 18.7202 9.71736 18.7202H2.4802C1.67433 18.7202 1.25966 18.275 1.25966 17.4801ZM6.67384 10.159C6.36088 10.159 6.2357 10.0318 6.2357 9.71383V5.54054L10.7032 10.159H6.67384Z" fill="white"/>
</svg>
