<svg width="16" height="16" viewBox="0 0 16 16" fill="none" xmlns="http://www.w3.org/2000/svg">
<path d="M8.30788 16C9.47098 16 10.5852 15.8465 11.4258 15.5779V14.2446C10.8393 14.5036 9.60782 14.6667 8.3763 14.6667C4.20281 14.6667 1.52474 12.0863 1.52474 8.06715V8.04796C1.52474 4.11511 4.23213 1.32374 8.03421 1.32374C11.8754 1.32374 14.4753 3.65468 14.4753 7.11751V7.13669C14.4753 9.34293 13.7422 10.7722 12.5889 10.7722C11.9243 10.7722 11.5528 10.3789 11.5528 9.70743V4.25899H9.89126V5.41966H9.72511C9.34392 4.57554 8.47404 4.06715 7.44777 4.06715C5.45388 4.06715 4.08552 5.67866 4.08552 8V8.01918C4.08552 10.446 5.44411 12.0767 7.47709 12.0767C8.62065 12.0767 9.47098 11.5492 9.88149 10.5707H10.0476L10.0574 10.6283C10.2431 11.5492 11.113 12.1439 12.2663 12.1439C14.5535 12.1439 16 10.187 16 7.08873V7.06954C16 2.89688 12.7844 0 8.14172 0C3.31338 0 0 3.2518 0 7.99041V8.00959C0 12.8729 3.24496 16 8.30788 16ZM7.78986 10.5803C6.60721 10.5803 5.88393 9.6211 5.88393 8.06715V8.04796C5.88393 6.47482 6.59743 5.53477 7.80941 5.53477C9.03115 5.53477 9.81307 6.51319 9.81307 8.04796V8.06715C9.81307 9.60192 9.03116 10.5803 7.78986 10.5803Z" fill="white"/>
</svg>
