<svg width="22" height="20" viewBox="0 0 22 20" fill="none" xmlns="http://www.w3.org/2000/svg">
<path fill-rule="evenodd" clip-rule="evenodd" d="M6.40836 0C8.08844 0 9.74918 0.636496 10.9983 1.73261C12.2478 0.636496 13.9081 0 15.5882 0C17.331 0 18.9492 0.636081 20.1429 1.79116C21.3366 2.94623 22 4.5082 22 6.19224C22 8.12331 21.1806 9.9863 19.4219 12.0548C17.9016 13.8401 15.7914 15.6845 12.9766 18.0901L11 20L9.02344 18.0901C6.20941 15.6845 4.09922 13.8418 2.57812 12.0548C0.819414 9.9863 0 8.12331 0 6.19224C0 4.5082 0.658281 2.94457 1.85367 1.79116C3.04906 0.637741 4.66727 0 6.40836 0Z" fill="white"/>
</svg>
