<svg width="48" height="48" viewBox="0 0 48 48" fill="none" xmlns="http://www.w3.org/2000/svg">
<rect width="48" height="48" rx="24" fill="#F0F0F0"/>
<path d="M22.4156 25.306C22.4369 26.1657 23.14 26.8515 24 26.8515C24.86 26.8515 25.5631 26.1657 25.5844 25.306L25.7948 16.8399C25.8198 15.8312 25.009 15 24 15C22.991 15 22.1802 15.8312 22.2052 16.8399L22.4156 25.306ZM24 33C25.1166 33 26 32.1464 26 31.0577C26 29.9691 25.1166 29.1155 24 29.1155C22.8834 29.1155 22 29.9691 22 31.0577C22 32.1464 22.8834 33 24 33Z" fill="#FF4944"/>
</svg>
