<svg width="24" height="24" viewBox="0 0 24 24" fill="none" xmlns="http://www.w3.org/2000/svg">
<g filter="url(#filter0_b_1725_9369)">
<path d="M19.6667 4.15041L13.1231 2.02409C12.7949 1.91883 12.4462 2.17146 12.4462 2.52936V3.51883H9.24622C8.95904 3.51883 8.7334 3.75041 8.7334 4.04515V10.2978H9.8411V4.65567H12.4667V19.3504H9.82058V13.7083H8.71289V19.9609C8.71289 20.2557 8.93853 20.4872 9.22571 20.4872H12.4257V21.4767C12.4257 21.8346 12.7744 22.0872 13.1026 21.982L19.6462 19.8557C19.8719 19.7925 20.0155 19.582 20.0155 19.3504V4.67672C20.0155 4.44515 19.8719 4.23462 19.6667 4.15041ZM14.6206 12.6346C14.2719 12.6346 14.0052 12.3399 14.0052 12.003C14.0052 11.6451 14.2924 11.3715 14.6206 11.3715C14.9488 11.3715 15.2565 11.6662 15.2565 12.003C15.2565 12.3609 14.9693 12.6346 14.6206 12.6346Z" fill="white" fill-opacity="0.6"/>
<path d="M11.4 12.9503C11.5641 12.9503 11.7077 12.8029 11.7077 12.6345V11.3713C11.7077 11.2029 11.5641 11.0555 11.4 11.0555H7.37949V9.79239C7.37949 9.4766 7.03077 9.30818 6.78462 9.49765L4.13846 11.7082C3.95385 11.8555 3.95385 12.1503 4.13846 12.2977L6.78462 14.5082C7.03077 14.6977 7.37949 14.5292 7.37949 14.2134V12.9503H11.4Z" fill="white" fill-opacity="0.6"/>
</g>
<defs>
<!--<filter id="filter0_b_1725_9369" x="-16" y="-16" width="56" height="56" filterUnits="userSpaceOnUse" color-interpolation-filters="sRGB">-->
<!--<feFlood flood-opacity="0" result="BackgroundImageFix"/>-->
<!--<feGaussianBlur in="BackgroundImage" stdDeviation="8"/>-->
<!--<feComposite in2="SourceAlpha" operator="in" result="effect1_backgroundBlur_1725_9369"/>-->
<!--<feBlend mode="normal" in="SourceGraphic" in2="effect1_backgroundBlur_1725_9369" result="shape"/>-->
<!--</filter>-->
</defs>
</svg>
