<svg width="24" height="22" viewBox="0 0 24 22" fill="none" xmlns="http://www.w3.org/2000/svg">
<path d="M2.3975 0.91626C2.20062 0.91626 2.02625 1.03438 1.95125 1.21438C1.87812 1.39626 1.92125 1.60251 2.06188 1.73938L4.47125 4.14876L7.37938 7.05501L8.88875 8.56813L12.2956 11.975L21.2619 20.9394C21.3819 21.065 21.5619 21.1156 21.7288 21.0706C21.8975 21.0275 22.0288 20.8963 22.0719 20.7275C22.1169 20.5606 22.0663 20.3806 21.9406 20.2606L13.9175 12.2375C15.0481 12.5525 16.0981 13.1394 16.9738 13.9813L17.3188 14.315L19.9888 11.5344L19.6419 11.2025C17.5719 9.21501 14.8588 8.12001 12.0013 8.12001C11.3206 8.12001 10.6494 8.18938 9.99125 8.31126L8.39563 6.71563C9.55438 6.37813 10.7656 6.20001 12.0013 6.20001C15.3538 6.20001 18.5394 7.48626 20.9694 9.81876L21.3163 10.1506L23.9731 7.38313L23.6263 7.04938C20.4781 4.02501 16.3494 2.36001 12.0013 2.36001C9.70063 2.36001 7.46375 2.83063 5.39938 3.71751L2.74062 1.06063C2.65062 0.966885 2.52688 0.91626 2.3975 0.91626ZM3.59 4.62501C2.43875 5.29438 1.35875 6.10626 0.37625 7.05126L0.03125 7.38313L2.68812 10.1525L3.035 9.81876C4.0475 8.84563 5.195 8.05626 6.43063 7.46563L3.59 4.62501ZM7.88375 8.91688C6.59 9.44001 5.39563 10.2088 4.3625 11.2025L4.01563 11.5344L6.68375 14.315L7.03063 13.9813C8.13875 12.9144 9.52438 12.2488 11.0038 12.0388L7.88375 8.91688ZM12.0013 13.88C10.6363 13.88 9.33875 14.4031 8.34875 15.3556L8.00375 15.6875L12.0013 19.8519L15.3388 16.3756L12.9313 13.9644C12.6256 13.91 12.3163 13.88 12.0013 13.88Z" fill="#292929"/>
</svg>
