<svg width="12" height="8" viewBox="0 0 12 8" fill="none" xmlns="http://www.w3.org/2000/svg">
<path d="M8.29651 3.87987C9.2433 3.87987 10.058 3.02558 10.058 1.91324C10.058 0.814238 9.2389 0 8.29651 0C7.35853 0 6.53505 0.832036 6.53945 1.92214C6.53945 3.02558 7.35413 3.87987 8.29651 3.87987ZM3.22789 3.9822C4.05138 3.9822 4.76037 3.23471 4.76037 2.26919C4.76037 1.31257 4.04697 0.605117 3.22789 0.605117C2.41321 0.605117 1.69101 1.33037 1.69541 2.27809C1.69541 3.23471 2.40881 3.9822 3.22789 3.9822ZM0.775046 8H4.11743C3.65945 7.32814 4.21872 5.97553 5.16991 5.23693C4.6767 4.90768 4.04697 4.66296 3.22789 4.66296C1.24183 4.66296 0 6.14461 0 7.37709C0 7.77753 0.21578 8 0.775046 8ZM5.53101 8H11.062C11.7534 8 12 7.79978 12 7.40823C12 6.26029 10.5776 4.67631 8.29651 4.67631C6.01101 4.67631 4.58862 6.26029 4.58862 7.40823C4.58862 7.79978 4.83523 8 5.53101 8Z" fill="white" fill-opacity="0.6"/>
</svg>
