<svg width="20" height="20" viewBox="0 0 20 20" fill="none" xmlns="http://www.w3.org/2000/svg">
<path d="M12.3984 0.921875L11.8828 1.625L8.20312 6.64062C6.23145 6.29785 4.14551 6.85449 2.625 8.375L2.08594 8.89062L6.07031 12.875L0 18.9453V20H1.05469L7.125 13.9297L11.1094 17.9141L11.625 17.375C13.1455 15.8545 13.7021 13.7686 13.3594 11.7969L18.375 8.11719L19.0781 7.60156L12.3984 0.921875ZM12.5859 3.21875L16.7812 7.41406L12.1172 10.8359L11.6953 11.1406L11.8359 11.6328C12.1963 13.0068 11.8037 14.4395 10.9453 15.6406L4.35938 9.05469C5.56055 8.19629 6.99316 7.80371 8.36719 8.16406L8.85938 8.30469L9.16406 7.88281L12.5859 3.21875Z" fill="white" fill-opacity="0.6"/>
</svg>
