<svg width="22" height="19" viewBox="0 0 22 19" fill="none" xmlns="http://www.w3.org/2000/svg">
<path d="M20.75 0.25H1.25C1.05109 0.25 0.860322 0.329018 0.71967 0.46967C0.579018 0.610322 0.5 0.801088 0.5 1C0.5 1.19891 0.579018 1.38968 0.71967 1.53033C0.860322 1.67098 1.05109 1.75 1.25 1.75H2.78L3.4325 16.105C3.45952 16.6834 3.70845 17.229 4.12751 17.6285C4.54658 18.028 5.10352 18.2506 5.6825 18.25H16.3175C16.8965 18.2506 17.4534 18.028 17.8725 17.6285C18.2916 17.229 18.5405 16.6834 18.5675 16.105L19.22 1.75H20.75C20.9489 1.75 21.1397 1.67098 21.2803 1.53033C21.421 1.38968 21.5 1.19891 21.5 1C21.5 0.801088 21.421 0.610322 21.2803 0.46967C21.1397 0.329018 20.9489 0.25 20.75 0.25ZM8 13C8 13.1989 7.92098 13.3897 7.78033 13.5303C7.63968 13.671 7.44891 13.75 7.25 13.75C7.05109 13.75 6.86032 13.671 6.71967 13.5303C6.57902 13.3897 6.5 13.1989 6.5 13V6.25C6.5 6.05109 6.57902 5.86032 6.71967 5.71967C6.86032 5.57902 7.05109 5.5 7.25 5.5C7.44891 5.5 7.63968 5.57902 7.78033 5.71967C7.92098 5.86032 8 6.05109 8 6.25V13ZM11.75 13C11.75 13.1989 11.671 13.3897 11.5303 13.5303C11.3897 13.671 11.1989 13.75 11 13.75C10.8011 13.75 10.6103 13.671 10.4697 13.5303C10.329 13.3897 10.25 13.1989 10.25 13V6.25C10.25 6.05109 10.329 5.86032 10.4697 5.71967C10.6103 5.57902 10.8011 5.5 11 5.5C11.1989 5.5 11.3897 5.57902 11.5303 5.71967C11.671 5.86032 11.75 6.05109 11.75 6.25V13ZM15.5 13C15.5 13.1989 15.421 13.3897 15.2803 13.5303C15.1397 13.671 14.9489 13.75 14.75 13.75C14.5511 13.75 14.3603 13.671 14.2197 13.5303C14.079 13.3897 14 13.1989 14 13V6.25C14 6.05109 14.079 5.86032 14.2197 5.71967C14.3603 5.57902 14.5511 5.5 14.75 5.5C14.9489 5.5 15.1397 5.57902 15.2803 5.71967C15.421 5.86032 15.5 6.05109 15.5 6.25V13Z" fill="#FF2D55"/>
</svg>
