<svg width="24" height="24" viewBox="0 0 24 24" fill="none" xmlns="http://www.w3.org/2000/svg">
<path d="M15.9701 13.9934C16.3282 14.2455 16.7735 14.1547 17.0349 13.7716C18.274 11.9973 19 9.55762 19 7.06752C19 4.57741 18.2837 2.11756 17.0349 0.363393C16.7735 -0.0197002 16.3282 -0.110433 15.9701 0.141602C15.6119 0.393637 15.5538 0.867462 15.8346 1.2808C16.8994 2.83333 17.4996 4.92018 17.4996 7.06752C17.4996 9.21485 16.88 11.2916 15.8346 12.8542C15.5635 13.2676 15.6119 13.7414 15.9701 13.9934ZM13.3884 11.3622C13.7078 11.5941 14.1628 11.5235 14.4242 11.1303C15.1695 10.1121 15.6148 8.60997 15.6148 7.06752C15.6148 5.52507 15.1695 4.03302 14.4242 3.00472C14.1628 2.61154 13.7078 2.54097 13.3884 2.77285C12.9915 3.05512 12.9334 3.55919 13.2335 3.97253C13.7949 4.77904 14.1144 5.89808 14.1144 7.06752C14.1144 8.23696 13.7853 9.34591 13.2335 10.1625C12.9431 10.5859 12.9915 11.0698 13.3884 11.3622ZM8.15078 11.6646C10.232 11.6646 12.0229 9.72901 12.0229 7.20866C12.0229 4.71855 10.2224 2.87366 8.15078 2.87366C6.07921 2.87366 4.27868 4.75888 4.27868 7.22882C4.27868 9.72901 6.07921 11.6646 8.15078 11.6646ZM2.07158 21H14.23C15.7498 21 16.2919 20.5463 16.2919 19.6592C16.2919 17.0582 13.1652 13.4692 8.15078 13.4692C3.12673 13.4692 0 17.0582 0 19.6592C0 20.5463 0.542095 21 2.07158 21Z" fill="#FF2D55" fill-opacity="0.2"/>
<path d="M18.5 13C15.467 13 13 15.467 13 18.5C13 21.533 15.467 24 18.5 24C21.533 24 24 21.533 24 18.5C24 15.467 21.533 13 18.5 13ZM20.854 20.146C21.049 20.341 21.049 20.658 20.854 20.853C20.756 20.951 20.628 21 20.5 21C20.372 21 20.244 20.951 20.146 20.854L18.5 19.207L16.854 20.853C16.756 20.951 16.628 21 16.5 21C16.372 21 16.244 20.951 16.146 20.854C15.951 20.659 15.951 20.342 16.146 20.147L17.792 18.501L16.146 16.855C15.951 16.66 15.951 16.343 16.146 16.148C16.341 15.953 16.658 15.953 16.853 16.148L18.499 17.794L20.145 16.148C20.34 15.953 20.657 15.953 20.852 16.148C21.047 16.343 21.047 16.66 20.852 16.855L19.207 18.5L20.854 20.146Z" fill="#FF2D55"/>
</svg>
