<svg width="9" height="8" viewBox="0 0 9 8" fill="none" xmlns="http://www.w3.org/2000/svg">
<path d="M4.06414 7.99951C4.30341 7.99951 4.48851 7.89819 4.61944 7.70015L8.86323 0.957485C8.95804 0.805499 8.99867 0.676541 8.99867 0.552189C8.99867 0.225188 8.77294 -0.000488281 8.44788 -0.000488281C8.22666 -0.000488281 8.09122 0.0824133 7.95578 0.298878L4.04156 6.63164L2.03253 4.00181C1.89709 3.82219 1.75714 3.7485 1.55849 3.7485C1.23344 3.7485 0.998672 3.98339 0.998672 4.30579C0.998672 4.44856 1.04833 4.58673 1.16572 4.72951L3.50432 7.70475C3.66233 7.9074 3.82937 7.99951 4.06414 7.99951Z" fill="#1D1F23"/>
</svg>
