<svg width="34" height="34" viewBox="0 0 34 34" fill="none" xmlns="http://www.w3.org/2000/svg">
<path d="M17.145 33.79C26.249 33.79 33.79 26.2651 33.79 17.145C33.79 8.04102 26.249 0.5 17.1289 0.5C8.0249 0.5 0.5 8.04102 0.5 17.145C0.5 26.2651 8.04102 33.79 17.145 33.79ZM17.1611 25.6045C16.291 25.6045 15.6626 25.0083 15.6626 24.1543V16.2749L15.8237 12.8267L14.3091 14.6958L12.4399 16.6455C12.1982 16.9194 11.8276 17.0806 11.4248 17.0806C10.6353 17.0806 10.0552 16.5166 10.0552 15.7271C10.0552 15.3242 10.168 15.002 10.4419 14.7119L15.9849 9.12061C16.3555 8.73389 16.71 8.55664 17.1611 8.55664C17.6284 8.55664 17.9829 8.73389 18.3535 9.12061L23.8804 14.7119C24.1543 15.002 24.2832 15.3242 24.2832 15.7271C24.2832 16.5166 23.687 17.0806 22.8975 17.0806C22.4946 17.0806 22.1401 16.9355 21.8823 16.6455L20.0293 14.7119L18.4985 12.8105L18.6597 16.2749V24.1543C18.6597 25.0083 18.0312 25.6045 17.1611 25.6045Z" fill="#FFED00"/>
</svg>
