<svg width="20" height="20" viewBox="0 0 20 20" fill="none" xmlns="http://www.w3.org/2000/svg">
<path d="M19.688 8.74591C19.528 8.64393 18.266 7.88988 17.766 7.65998L17.146 6.15998C17.3301 5.66402 17.684 4.27394 17.7461 4.03191H17.7459C17.7964 3.80814 17.7285 3.57405 17.566 3.41194L16.588 2.43998C16.4263 2.27675 16.1918 2.20867 15.968 2.26001C15.784 2.302 14.368 2.65997 13.84 2.86005L12.34 2.24008C12.1219 1.76004 11.388 0.530115 11.254 0.318079V0.31794C11.1335 0.120675 10.9192 0.000278572 10.688 0H9.31192C9.08229 0.000139507 8.86871 0.117886 8.74592 0.311943C8.64394 0.471961 7.88988 1.73394 7.65999 2.23395L6.15999 2.85391C5.66402 2.6699 4.27395 2.31598 4.03191 2.25387V2.25401C3.80814 2.20351 3.57405 2.27145 3.41195 2.43398L2.43998 3.41195C2.27675 3.57364 2.20867 3.80816 2.26001 4.03191C2.302 4.21592 2.65998 5.63195 2.86005 6.15999L2.24008 7.65999C1.76005 7.87804 0.530115 8.61199 0.318079 8.74592H0.31794C0.120675 8.86645 0.000278572 9.08074 0 9.31192V10.686C0.0001395 10.9157 0.117886 11.1293 0.311943 11.252C0.471962 11.3539 1.73395 12.108 2.23395 12.3379L2.85391 13.8379C2.6699 14.3339 2.31598 15.7239 2.25388 15.966H2.25401C2.20351 16.1899 2.27145 16.424 2.43398 16.5859L3.40595 17.5579V17.558C3.56764 17.7213 3.80216 17.7892 4.02592 17.738C4.20993 17.696 5.62595 17.338 6.15399 17.138L7.65399 17.7579C7.87205 18.238 8.606 19.4679 8.73992 19.6799C8.86102 19.8798 9.07824 20.0014 9.31192 20H10.686C10.9157 19.9998 11.1293 19.8821 11.252 19.688C11.3539 19.528 12.108 18.266 12.3379 17.766L13.8379 17.1461C14.3339 17.3301 15.7239 17.684 15.966 17.7461V17.7459C16.1899 17.7965 16.424 17.7285 16.5859 17.566L17.5579 16.594H17.558C17.7213 16.4323 17.7892 16.1978 17.738 15.974C17.696 15.79 17.338 14.374 17.138 13.846L17.7579 12.346C18.238 12.1279 19.4679 11.394 19.6799 11.26C19.8799 11.139 20.0014 10.9217 20 10.688V9.31193C20.0018 9.08188 19.8835 8.86733 19.688 8.74593L19.688 8.74591ZM9.99978 14.3538C8.84396 14.3528 7.73595 13.8926 6.91942 13.0746C6.10288 12.2566 5.64474 11.1477 5.64584 9.99191C5.64682 8.83609 6.10706 7.72795 6.92499 6.91141C7.74306 6.09487 8.85188 5.63684 10.0077 5.63784C11.1635 5.63895 12.2717 6.09905 13.0882 6.91713C13.9048 7.7352 14.3628 8.84402 14.3618 9.99984C14.3591 11.1551 13.8985 12.2623 13.0808 13.0785C12.263 13.8947 11.155 14.3533 9.99974 14.3538H9.99978Z" fill="white"/>
</svg>
