<svg width="20" height="19" viewBox="0 0 20 19" fill="none" xmlns="http://www.w3.org/2000/svg">
<path d="M17.165 12.1996C17.4902 12.4193 17.8945 12.3402 18.1318 12.0063C19.2568 10.4594 19.916 8.33243 19.916 6.16154C19.916 3.99064 19.2656 1.84611 18.1318 0.31681C17.8945 -0.0171748 17.4902 -0.0962764 17.165 0.12345C16.8398 0.343177 16.7871 0.756263 17.042 1.11661C18.0088 2.47013 18.5537 4.28947 18.5537 6.16154C18.5537 8.03361 17.9912 9.84415 17.042 11.2065C16.7959 11.5668 16.8398 11.9799 17.165 12.1996ZM13.9131 9.90568C14.2031 10.1078 14.6162 10.0463 14.8535 9.70353C15.5303 8.81583 15.9346 7.50626 15.9346 6.16154C15.9346 4.81681 15.5303 3.51603 14.8535 2.61954C14.6162 2.27677 14.2031 2.21525 13.9131 2.4174C13.5527 2.66349 13.5 3.10294 13.7725 3.46329C14.2822 4.16642 14.5723 5.142 14.5723 6.16154C14.5723 7.18107 14.2734 8.14786 13.7725 8.85978C13.5088 9.22892 13.5527 9.65079 13.9131 9.90568ZM7.40039 10.1693C9.29004 10.1693 10.916 8.48185 10.916 6.28458C10.916 4.11368 9.28125 2.50529 7.40039 2.50529C5.51953 2.50529 3.88477 4.14884 3.88477 6.30216C3.88477 8.48185 5.51953 10.1693 7.40039 10.1693ZM1.88086 18.308H12.9199C14.2998 18.308 14.792 17.9125 14.792 17.1391C14.792 14.8715 11.9531 11.7426 7.40039 11.7426C2.83887 11.7426 0 14.8715 0 17.1391C0 17.9125 0.492188 18.308 1.88086 18.308Z" fill="white"/>
</svg>
