<svg width="24" height="24" viewBox="0 0 24 24" fill="none" xmlns="http://www.w3.org/2000/svg">
<g clip-path="url(#clip0_968_51942)">
<path opacity="0.5" d="M17.3984 1.92188L16.8828 2.625L13.2031 7.64062C11.2314 7.29785 9.14551 7.85449 7.625 9.375L7.08594 9.89062L11.0703 13.875L5 19.9453V21H6.05469L12.125 14.9297L16.1094 18.9141L16.625 18.375C18.1455 16.8545 18.7021 14.7686 18.3594 12.7969L23.375 9.11719L24.0781 8.60156L17.3984 1.92188ZM17.5859 4.21875L21.7812 8.41406L17.1172 11.8359L16.6953 12.1406L16.8359 12.6328C17.1963 14.0068 16.8037 15.4395 15.9453 16.6406L9.35938 10.0547C10.5605 9.19629 11.9932 8.80371 13.3672 9.16406L13.8594 9.30469L14.1641 8.88281L17.5859 4.21875Z" fill="#292929"/>
<line x1="3.23445" y1="1.74407" x2="23.0334" y2="21.5431" stroke="#292929" stroke-width="2"/>
</g>
<defs>
<clipPath id="clip0_968_51942">
<rect width="24" height="24" fill="white"/>
</clipPath>
</defs>
</svg>
